<mxfile host="app.diagrams.net" modified="2023-07-28T03:16:19.208Z" agent="Mozilla/5.0 (Windows NT 10.0; Win64; x64) AppleWebKit/537.36 (KHTML, like Gecko) Chrome/115.0.0.0 Safari/537.36 Edg/115.0.1901.183" etag="GJ2E6foeeHz08bK1mNjT" version="21.6.5" type="github">
  <diagram name="第 1 页" id="flG8T0QfkHHSRYx05KaW">
    <mxGraphModel dx="902" dy="658" grid="1" gridSize="10" guides="1" tooltips="1" connect="1" arrows="1" fold="1" page="1" pageScale="1" pageWidth="827" pageHeight="1169" math="0" shadow="0">
      <root>
        <mxCell id="0" />
        <mxCell id="1" parent="0" />
        <mxCell id="ZXl6MCNw-PSTIhQv_DlA-29" value="" style="rounded=1;whiteSpace=wrap;html=1;dashed=1;fillColor=none;strokeColor=#0976D6;strokeWidth=2;" vertex="1" parent="1">
          <mxGeometry x="70" y="570" width="260" height="160" as="geometry" />
        </mxCell>
        <mxCell id="ZXl6MCNw-PSTIhQv_DlA-22" style="edgeStyle=orthogonalEdgeStyle;rounded=0;orthogonalLoop=1;jettySize=auto;html=1;entryX=0;entryY=0.5;entryDx=0;entryDy=0;" edge="1" parent="1">
          <mxGeometry relative="1" as="geometry">
            <mxPoint x="470" y="609.7600000000002" as="sourcePoint" />
            <mxPoint x="640" y="609.7600000000002" as="targetPoint" />
          </mxGeometry>
        </mxCell>
        <mxCell id="ZXl6MCNw-PSTIhQv_DlA-2" value="&lt;span style=&quot;font-size: 21px;&quot;&gt;难度递增的分批次数据&lt;/span&gt;" style="rounded=1;whiteSpace=wrap;html=1;fillColor=#F5586D;fontColor=#ffffff;strokeColor=#A50040;" vertex="1" parent="1">
          <mxGeometry x="350" y="580" width="120" height="140" as="geometry" />
        </mxCell>
        <mxCell id="ZXl6MCNw-PSTIhQv_DlA-5" value="&lt;font color=&quot;#118aad&quot; style=&quot;font-size: 18px;&quot;&gt;&amp;nbsp; &amp;nbsp;初始难度分数&lt;/font&gt;" style="text;html=1;align=center;verticalAlign=middle;resizable=0;points=[];autosize=1;strokeColor=none;fillColor=none;" vertex="1" parent="1">
          <mxGeometry x="190" y="610" width="150" height="40" as="geometry" />
        </mxCell>
        <mxCell id="ZXl6MCNw-PSTIhQv_DlA-23" style="edgeStyle=orthogonalEdgeStyle;rounded=0;orthogonalLoop=1;jettySize=auto;html=1;entryX=1;entryY=0.5;entryDx=0;entryDy=0;" edge="1" parent="1">
          <mxGeometry relative="1" as="geometry">
            <mxPoint x="640" y="689.7600000000002" as="sourcePoint" />
            <mxPoint x="470" y="689.7600000000002" as="targetPoint" />
          </mxGeometry>
        </mxCell>
        <mxCell id="ZXl6MCNw-PSTIhQv_DlA-6" value="&lt;font style=&quot;font-size: 21px;&quot;&gt;大模型持续学习训练&lt;/font&gt;" style="rounded=1;whiteSpace=wrap;html=1;fillColor=#7CB53C;fontColor=#ffffff;strokeColor=#2D7600;" vertex="1" parent="1">
          <mxGeometry x="640" y="580" width="120" height="140" as="geometry" />
        </mxCell>
        <mxCell id="ZXl6MCNw-PSTIhQv_DlA-27" style="edgeStyle=orthogonalEdgeStyle;rounded=0;orthogonalLoop=1;jettySize=auto;html=1;entryX=0;entryY=0.786;entryDx=0;entryDy=0;entryPerimeter=0;" edge="1" parent="1" source="ZXl6MCNw-PSTIhQv_DlA-9" target="ZXl6MCNw-PSTIhQv_DlA-2">
          <mxGeometry relative="1" as="geometry" />
        </mxCell>
        <mxCell id="ZXl6MCNw-PSTIhQv_DlA-9" value="&lt;font style=&quot;font-size: 21px;&quot;&gt;数据属性分析&lt;/font&gt;" style="rounded=1;whiteSpace=wrap;html=1;fillColor=#647687;fontColor=#ffffff;strokeColor=#314354;" vertex="1" parent="1">
          <mxGeometry x="80" y="660" width="135" height="60" as="geometry" />
        </mxCell>
        <mxCell id="ZXl6MCNw-PSTIhQv_DlA-16" value="&lt;font color=&quot;#cc1476&quot; style=&quot;font-size: 18px;&quot;&gt;每个批次动态调整&lt;/font&gt;" style="text;html=1;align=center;verticalAlign=middle;resizable=0;points=[];autosize=1;strokeColor=none;fillColor=none;" vertex="1" parent="1">
          <mxGeometry x="480" y="610" width="170" height="40" as="geometry" />
        </mxCell>
        <mxCell id="ZXl6MCNw-PSTIhQv_DlA-18" value="&lt;font color=&quot;#08520b&quot; style=&quot;font-size: 18px;&quot;&gt;训练信息实时反馈&lt;/font&gt;" style="text;html=1;align=center;verticalAlign=middle;resizable=0;points=[];autosize=1;strokeColor=none;fillColor=none;" vertex="1" parent="1">
          <mxGeometry x="480" y="690" width="170" height="40" as="geometry" />
        </mxCell>
        <mxCell id="ZXl6MCNw-PSTIhQv_DlA-26" style="edgeStyle=orthogonalEdgeStyle;rounded=0;orthogonalLoop=1;jettySize=auto;html=1;entryX=0;entryY=0.214;entryDx=0;entryDy=0;entryPerimeter=0;" edge="1" parent="1" source="ZXl6MCNw-PSTIhQv_DlA-19" target="ZXl6MCNw-PSTIhQv_DlA-2">
          <mxGeometry relative="1" as="geometry" />
        </mxCell>
        <mxCell id="ZXl6MCNw-PSTIhQv_DlA-19" value="&lt;font style=&quot;font-size: 20px;&quot;&gt;预训练模型&lt;/font&gt;" style="rounded=1;whiteSpace=wrap;html=1;fillColor=#1299C2;fontColor=#ffffff;strokeColor=#006EAF;" vertex="1" parent="1">
          <mxGeometry x="80" y="580" width="135" height="60" as="geometry" />
        </mxCell>
        <mxCell id="ZXl6MCNw-PSTIhQv_DlA-28" value="&lt;font color=&quot;#4d4d4d&quot; style=&quot;font-size: 18px;&quot;&gt;平衡分配&lt;/font&gt;" style="text;html=1;align=center;verticalAlign=middle;resizable=0;points=[];autosize=1;strokeColor=none;fillColor=none;" vertex="1" parent="1">
          <mxGeometry x="215" y="690" width="100" height="40" as="geometry" />
        </mxCell>
        <mxCell id="ZXl6MCNw-PSTIhQv_DlA-30" value="" style="rounded=1;whiteSpace=wrap;html=1;dashed=1;fillColor=none;strokeColor=#0976D6;strokeWidth=2;" vertex="1" parent="1">
          <mxGeometry x="490" y="570" width="280" height="160" as="geometry" />
        </mxCell>
        <mxCell id="ZXl6MCNw-PSTIhQv_DlA-31" value="&lt;font style=&quot;font-size: 21px;&quot;&gt;数据分配策略&lt;/font&gt;" style="text;html=1;align=center;verticalAlign=middle;resizable=0;points=[];autosize=1;strokeColor=none;fillColor=none;" vertex="1" parent="1">
          <mxGeometry x="125" y="530" width="150" height="40" as="geometry" />
        </mxCell>
        <mxCell id="ZXl6MCNw-PSTIhQv_DlA-32" value="&lt;font style=&quot;font-size: 21px;&quot;&gt;动态调整策略&lt;/font&gt;" style="text;html=1;align=center;verticalAlign=middle;resizable=0;points=[];autosize=1;strokeColor=none;fillColor=none;" vertex="1" parent="1">
          <mxGeometry x="555" y="530" width="150" height="40" as="geometry" />
        </mxCell>
      </root>
    </mxGraphModel>
  </diagram>
</mxfile>
